<svg xmlns="http://www.w3.org/2000/svg" version="1.1" width="55px" height="55px" style="shape-rendering:geometricPrecision; text-rendering:geometricPrecision; image-rendering:optimizeQuality; fill-rule:evenodd; clip-rule:evenodd" xmlns:xlink="http://www.w3.org/1999/xlink">
	<g>
		<path style="opacity:0.008" d="M 54.5,31.5 C 54.5,32.8333 54.5,34.1667 54.5,35.5C 51.5,35.5 48.5,35.5 45.5,35.5C 45.5,27.8333 45.5,20.1667 45.5,12.5C 42.2869,12.19 39.2869,12.5233 36.5,13.5C 36.1667,13.5 35.8333,13.5 35.5,13.5C 36.7373,11.9032 38.404,10.7365 40.5,10C 42.1796,9.96566 43.6796,9.799 45,9.5C 46.4672,17.0579 47.3006,24.7246 47.5,32.5C 49.9029,32.552 52.2362,32.2186 54.5,31.5 Z" />
	</g>
	<g>
		<path style="opacity:0.008" d="M 20.5,17.5 C 19.5,16.1667 18.5,14.8333 17.5,13.5C 14.7131,12.5233 11.7131,12.19 8.5,12.5C 8.5,15.5 8.5,18.5 8.5,21.5C 7.52056,18.3752 7.18723,15.0419 7.5,11.5C 11.5,11.5 15.5,11.5 19.5,11.5C 19.8333,13.5 20.1667,15.5 20.5,17.5 Z" />
	</g>
	<g>
		<path style="opacity:0.998" d="M 17.5,13.5 C 14.8333,13.5 12.1667,13.5 9.5,13.5C 9.82497,21.0191 9.49163,28.3524 8.5,35.5C 8.5,33.8333 8.5,32.1667 8.5,30.5C 8.5,27.5 8.5,24.5 8.5,21.5C 8.5,18.5 8.5,15.5 8.5,12.5C 11.7131,12.19 14.7131,12.5233 17.5,13.5 Z" />
	</g>
	<g>
		<path style="opacity:1" d="M 17.5,13.5 C 18.5,14.8333 19.5,16.1667 20.5,17.5C 22.3561,20.4086 24.0227,23.4086 25.5,26.5C 25.5,27.1667 25.5,27.8333 25.5,28.5C 25.4614,29.7562 25.9614,30.7562 27,31.5C 28.3717,30.0899 29.205,28.4233 29.5,26.5C 30.7164,21.738 32.7164,17.4047 35.5,13.5C 35.8333,13.5 36.1667,13.5 36.5,13.5C 39.1667,13.5 41.8333,13.5 44.5,13.5C 44.175,21.0191 44.5084,28.3524 45.5,35.5C 48.5,35.5 51.5,35.5 54.5,35.5C 54.5,37.8333 54.5,40.1667 54.5,42.5C 49.3054,42.8205 44.3054,42.4872 39.5,41.5C 39.6663,34.1591 39.4997,26.8258 39,19.5C 35.8821,25.4008 33.0488,31.4008 30.5,37.5C 26.4094,38.1637 23.4094,36.8304 21.5,33.5C 19.049,30.2597 17.3824,26.5931 16.5,22.5C 16.0133,21.5266 15.5133,20.5266 15,19.5C 14.5003,26.8258 14.3337,34.1591 14.5,41.5C 9.69463,42.4872 4.69463,42.8205 -0.5,42.5C -0.5,40.1667 -0.5,37.8333 -0.5,35.5C 2.5,35.5 5.5,35.5 8.5,35.5C 9.49163,28.3524 9.82497,21.0191 9.5,13.5C 12.1667,13.5 14.8333,13.5 17.5,13.5 Z" />
	</g>
	<g>
		<path style="opacity:0.896" d="M 36.5,13.5 C 39.2869,12.5233 42.2869,12.19 45.5,12.5C 45.5,20.1667 45.5,27.8333 45.5,35.5C 44.5084,28.3524 44.175,21.0191 44.5,13.5C 41.8333,13.5 39.1667,13.5 36.5,13.5 Z" />
	</g>
	<g>
		<path style="opacity:0.004" d="M 28.5,18.5 C 29.8333,19.1667 29.8333,19.1667 28.5,18.5 Z" />
	</g>
	<g>
		<path style="opacity:0.046" d="M 16.5,22.5 C 15.1907,28.3708 15.1907,34.3708 16.5,40.5C 16.0431,41.2975 15.3764,41.6309 14.5,41.5C 14.3337,34.1591 14.5003,26.8258 15,19.5C 15.5133,20.5266 16.0133,21.5266 16.5,22.5 Z" />
	</g>
	<g>
		<path style="opacity:0.004" d="M 27.5,24.5 C 27.369,23.7611 27.5357,23.0944 28,22.5C 28.6917,23.4368 28.525,24.1034 27.5,24.5 Z" />
	</g>
	<g>
		<path style="opacity:0.005" d="M 39.5,41.5 C 38.6753,37.3528 38.1753,33.0195 38,28.5C 37.5,29 37,29.5 36.5,30C 37.5914,32.0639 37.7581,34.2305 37,36.5C 36.3109,35.6433 35.4776,34.9767 34.5,34.5C 33.3578,35.8262 32.0245,36.8262 30.5,37.5C 33.0488,31.4008 35.8821,25.4008 39,19.5C 39.4997,26.8258 39.6663,34.1591 39.5,41.5 Z" />
	</g>
	<g>
		<path style="opacity:0.004" d="M 27.5,24.5 C 27.5,25.8333 26.8333,26.5 25.5,26.5C 25.5,25.1667 26.1667,24.5 27.5,24.5 Z" />
	</g>
	<g>
		<path style="opacity:0.01" d="M 29.5,26.5 C 29.205,28.4233 28.3717,30.0899 27,31.5C 25.9614,30.7562 25.4614,29.7562 25.5,28.5C 26.1174,28.6107 26.6174,28.944 27,29.5C 27.3768,28.0577 28.2101,27.0577 29.5,26.5 Z" />
	</g>
	<g>
		<path style="opacity:0.009" d="M 8.5,30.5 C 8.5,32.1667 8.5,33.8333 8.5,35.5C 5.5,35.5 2.5,35.5 -0.5,35.5C -0.5,34.8333 -0.5,34.1667 -0.5,33.5C 3.19674,34.7123 6.19674,33.7123 8.5,30.5 Z" />
	</g>
	<g>
		<path style="opacity:0.172" d="M 21.5,33.5 C 23.4094,36.8304 26.4094,38.1637 30.5,37.5C 27.9759,38.8003 25.3092,38.8003 22.5,37.5C 21.7542,36.2638 21.4208,34.9305 21.5,33.5 Z" />
	</g>
	<g>
		<path style="opacity:0.004" d="M 45.5,47.5 C 46.8366,48.3149 47.8366,49.4815 48.5,51C 46.3386,51.7216 44.672,51.0549 43.5,49C 44.4158,48.7216 45.0825,48.2216 45.5,47.5 Z" />
	</g>
	<g>
		<path style="opacity:0.004" d="M 49.5,48.5 C 50.525,48.8966 50.6917,49.5632 50,50.5C 49.5357,49.9056 49.369,49.2389 49.5,48.5 Z" />
	</g>
	<g>
		<path style="opacity:0.004" d="M 54.5,52.5 C 54.5,52.8333 54.5,53.1667 54.5,53.5C 53.1266,53.6567 51.7932,53.49 50.5,53C 51.6667,52.5 52.5,51.6667 53,50.5C 53.2784,51.4158 53.7784,52.0825 54.5,52.5 Z" />
	</g>
</svg>
